#!OML:ASF E:\pregnant2\Project 1\Capture day 1\Session 1\pregnant2.ASF
:FULLY-SPECIFIED
:DEGREES
1518
root 7.69399 16.8337 31.9676 24.0797 -15.1111 6.16641
lowerback -9.48592 -2.57231 -7.27516
upperback -18.5763 -3.68558 0.638358
thorax -15.0291 -0.839116 4.87685
lowerneck -10.7406 -0.443365 -2.30032
upperneck 37.6376 -0.640651 0.647236
head 14.8508 -0.637949 0.549858
rclavicle -2.18663e-014 2.66371e-014
rhumerus -51.4474 -14.1696 -20.9358
rradius 49.0582
rwrist -38.8403
rhand -18.2349 -32.101
rfingers 7.12502
rthumb 8.04361 -61.9279
lclavicle -2.18663e-014 2.66371e-014
lhumerus -38.5242 16.2241 41.5121
lradius 68.4497
lwrist 49.7933
lhand -15.6228 37.9457
lfingers 7.12502
lthumb 10.5641 67.6602
rfemur -56.9091 12.2283 6.62691
rtibia 29.0887
rfoot -17.8816 -29.1372
rtoes 10.384
lfemur -29.6402 -8.67555 -29.9438
ltibia 23.3805
lfoot -13.5409 15.2147
ltoes -16.1934
1519
root 7.67014 16.8348 32.0734 23.9741 -15.242 6.252
lowerback -9.56729 -2.56472 -7.24056
upperback -18.61 -3.6783 0.584526
thorax -15.0295 -0.847027 4.79406
lowerneck -10.7375 -0.359856 -2.20534
upperneck 37.5207 -0.528231 0.626175
head 14.7904 -0.577471 0.541293
rclavicle 6.59965e-014 1.63003e-014
rhumerus -51.3673 -14.5094 -19.7795
rradius 49.9656
rwrist -40.3008
rhand -18.4907 -32.6262
rfingers 7.12502
rthumb 7.79673 -62.4625
lclavicle 6.59965e-014 1.63003e-014
lhumerus -38.3367 16.5813 40.5051
lradius 69.074
lwrist 50.582
lhand -15.9284 38.1127
lfingers 7.12502
lthumb 10.2692 67.842
rfemur -56.8964 13.3861 5.50022
rtibia 28.3725
rfoot -19.1282 -30.7493
rtoes 11.529
lfemur -28.8272 -8.56946 -30.1413
ltibia 22.796
lfoot -13.5859 15.2368
ltoes -16.4108
1520
root 7.64478 16.8294 32.1801 23.8709 -15.3698 6.32603
lowerback -9.65391 -2.55319 -7.19665
upperback -18.643 -3.66489 0.533372
thorax -15.0268 -0.853121 4.70878
lowerneck -10.7364 -0.280489 -2.11646
upperneck 37.4091 -0.419912 0.603387
head 14.7336 -0.519883 0.532429
rclavicle 4.35338e-014 6.36111e-015
rhumerus -51.2742 -14.7736 -18.7457
rradius 50.7688
rwrist -41.2353
rhand -18.548 -32.957
rfingers 7.12502
rthumb 7.74144 -62.7953
lclavicle 4.35338e-014 6.36111e-015
lhumerus -38.157 16.9345 39.5625
lradius 69.6448
lwrist 51.1399
lhand -16.1023 38.1621
lfingers 7.12502
lthumb 10.1015 67.8996
rfemur -56.8319 14.1325 4.85193
rtibia 27.9288
rfoot -20.1753 -31.7932
rtoes 12.2065
lfemur -28.1233 -8.44599 -30.3282
ltibia 22.4394
lfoot -13.7424 15.2862
ltoes -16.676
1521
root 7.61813 16.8181 32.2876 23.7731 -15.4948 6.38329
lowerback -9.74517 -2.53537 -7.13652
upperback -18.6777 -3.6424 0.485496
thorax -15.0247 -0.856636 4.61799
lowerneck -10.7383 -0.207088 -2.03695
upperneck 37.3067 -0.318157 0.580236
head 14.6825 -0.46658 0.524057
rclavicle -4.04527e-014 -1.51076e-014
rhumerus -51.1723 -14.9464 -17.8399
rradius 51.4828
rwrist -41.7392
rhand -18.457 -33.1046
rfingers 7.12502
rthumb 7.82929 -62.9396
lclavicle -4.04527e-014 -1.51076e-014
lhumerus -37.9954 17.2629 38.6885
lradius 70.1764
lwrist 51.5022
lhand -16.2079 38.1666
lfingers 7.12502
lthumb 9.99962 67.9091
rfemur -56.6774 14.4236 4.73188
rtibia 27.7374
rfoot -20.7222 -32.1751
rtoes 12.3384
lfemur -27.5327 -8.30232 -30.5
ltibia 22.3167
lfoot -14.0139 15.358
ltoes -16.9717
1522
root 7.59031 16.8016 32.3956 23.6867 -15.6155 6.4191
lowerback -9.84489 -2.51539 -7.05804
upperback -18.7145 -3.61573 0.44647
thorax -15.0206 -0.859904 4.52675
lowerneck -10.7416 -0.136634 -1.95684
upperneck 37.2083 -0.216676 0.54486
head 14.634 -0.415019 0.510443
rclavicle 3.4191e-014 5.68524e-014
rhumerus -51.0526 -15.0617 -17.0393
rradius 52.1056
rwrist -41.8693
rhand -18.1618 -33.0799
rfingers 7.12502
rthumb 8.11417 -62.9041
lclavicle 3.4191e-014 5.68524e-014
lhumerus -37.8722 17.5617 37.8762
lradius 70.6892
lwrist 51.7089
lhand -16.2206 38.1679
lfingers 7.12502
lthumb 9.9873 67.911
rfemur -56.4284 14.2897 5.10043
rtibia 27.7738
rfoot -20.6217 -31.9206
rtoes 11.926
lfemur -27.0598 -8.13801 -30.6508
ltibia 22.4188
lfoot -14.3899 15.4514
ltoes -17.3109
1523
root 7.56133 16.7804 32.5047 23.6104 -15.7342 6.42937
lowerback -9.95636 -2.49107 -6.95834
upperback -18.7531 -3.58159 0.417399
thorax -15.0122 -0.861705 4.43449
lowerneck -10.752 -0.0683703 -1.88101
upperneck 37.1252 -0.115031 0.502682
head 14.5948 -0.365078 0.494824
rclavicle -8.24956e-015 5.1684e-015
rhumerus -50.9216 -15.1099 -16.3411
rradius 52.6758
rwrist -41.8065
rhand -17.7817 -32.9353
rfingers 7.12502
rthumb 8.48099 -62.745
lclavicle -8.24956e-015 5.1684e-015
lhumerus -37.8014 17.8019 37.1297
lradius 71.1954
lwrist 51.809
lhand -16.2007 38.1643
lfingers 7.12502
lthumb 10.0066 67.9065
rfemur -56.0986 13.8271 5.85221
rtibia 28.0084
rfoot -19.9383 -31.151
rtoes 11.1353
lfemur -26.6841 -7.9481 -30.7789
ltibia 22.7159
lfoot -14.8555 15.5608
ltoes -17.6667
1524
root 7.5308 16.755 32.6148 23.5444 -15.8489 6.41472
lowerback -10.0828 -2.46597 -6.84431
upperback -18.7924 -3.54419 0.40115
thorax -14.9953 -0.86306 4.3481
lowerneck -10.7696 -0.00095531 -1.80921
upperneck 37.0573 -0.0113083 0.453852
head 14.5648 -0.315886 0.477533
rclavicle -2.10712e-014 -1.98785e-015
rhumerus -50.7792 -15.0952 -15.7385
rradius 53.2221
rwrist -41.7119
rhand -17.3873 -32.7236
rfingers 7.12502
rthumb 8.86166 -62.5175
lclavicle -2.10712e-014 -1.98785e-015
lhumerus -37.7867 17.9791 36.4464
lradius 71.6992
lwrist 51.8473
lhand -16.1612 38.1559
lfingers 7.12502
lthumb 10.0447 67.8962
rfemur -55.7278 13.1728 6.83372
rtibia 28.4027
rfoot -18.8871 -30.0648
rtoes 10.3031
lfemur -26.3833 -7.72886 -30.8838
ltibia 23.1652
lfoot -15.3894 15.6742
ltoes -18.041
